<?xml version="1.0" encoding="UTF-8"?>
<!DOCTYPE svg PUBLIC "-//W3C//DTD SVG 1.1//EN" "http://www.w3.org/Graphics/SVG/1.1/DTD/svg11.dtd">
<svg xmlns="http://www.w3.org/2000/svg" version="1.1" width="1080px" height="1080px" style="shape-rendering:geometricPrecision; text-rendering:geometricPrecision; image-rendering:optimizeQuality; fill-rule:evenodd; clip-rule:evenodd" xmlns:xlink="http://www.w3.org/1999/xlink">
<g><path style="opacity:0.98" fill="#000000" d="M 49.5,108.5 C 300.5,108.333 551.5,108.5 802.5,109C 829.894,122.243 840.894,144.076 835.5,174.5C 823.852,175.499 812.186,175.832 800.5,175.5C 800.821,167.439 800.321,159.439 799,151.5C 796.189,145.429 791.355,142.262 784.5,142C 545.5,141.333 306.5,141.333 67.5,142C 58.0062,142.81 52.8395,147.977 52,157.5C 51.3333,305.167 51.3333,452.833 52,600.5C 52.9126,608.748 57.4126,613.915 65.5,616C 197.207,616.168 328.873,616.668 460.5,617.5C 461.65,639.608 461.65,661.608 460.5,683.5C 458.108,676.216 454.775,669.383 450.5,663C 434.831,649.391 418.831,649.058 402.5,662C 388.489,679.581 389.489,696.248 405.5,712C 419.167,720.667 432.833,720.667 446.5,712C 453.561,705.028 458.395,696.861 461,687.5C 461.667,709.5 461.667,731.5 461,753.5C 460.5,754 460,754.5 459.5,755C 434.833,755.333 410.167,755.667 385.5,756C 376.788,788.556 368.455,821.223 360.5,854C 393.777,854.588 426.777,854.922 459.5,855C 460,855.5 460.5,856 461,856.5C 461.167,860.167 461.333,863.833 461.5,867.5C 460.754,875.241 460.42,882.908 460.5,890.5C 396.836,891.667 333.169,891.833 269.5,891C 255.737,886.303 251.571,877.136 257,863.5C 260.544,858.478 265.377,855.644 271.5,855C 287.833,854.667 304.167,854.333 320.5,854C 321.308,853.692 321.975,853.192 322.5,852.5C 331.725,820.364 340.059,788.031 347.5,755.5C 253.778,755.539 160.111,755.372 66.5,755C 40.1679,752.653 23.6679,738.819 17,713.5C 16.3333,524.5 16.3333,335.5 17,146.5C 21.2692,128.075 32.1025,115.408 49.5,108.5 Z"/></g>
<g><path style="opacity:0.977" fill="#000000" d="M 538.5,207.5 C 668.167,207.333 797.834,207.5 927.5,208C 952.782,212.948 967.615,228.115 972,253.5C 972.833,284.172 972.667,314.839 971.5,345.5C 960.057,346.638 948.723,346.638 937.5,345.5C 936.5,323.177 936.167,300.843 936.5,278.5C 800.835,278.305 665.168,278.305 529.5,278.5C 529.5,459.167 529.5,639.833 529.5,820.5C 574.581,820.766 619.581,820.933 664.5,821C 665.496,855.76 665.829,890.594 665.5,925.5C 621.794,925.973 578.127,925.473 534.5,924C 512.551,918.385 499.051,904.552 494,882.5C 493.333,671.833 493.333,461.167 494,250.5C 499.884,226.781 514.717,212.448 538.5,207.5 Z"/></g>
<g><path style="opacity:0.979" fill="#000000" d="M 746.5,377.5 C 828.501,377.333 910.501,377.5 992.5,378C 1018.73,381.896 1034.56,396.73 1040,422.5C 1040.67,586.833 1040.67,751.167 1040,915.5C 1034.77,939.727 1019.94,954.227 995.5,959C 911.5,959.667 827.5,959.667 743.5,959C 717.414,953.582 702.248,937.748 698,911.5C 697.333,749.833 697.333,588.167 698,426.5C 702.352,398.315 718.519,381.981 746.5,377.5 Z M 733.5,448.5 C 823.833,448.5 914.167,448.5 1004.5,448.5C 1004.5,572.5 1004.5,696.5 1004.5,820.5C 914.14,820.849 823.807,820.849 733.5,820.5C 733.5,696.5 733.5,572.5 733.5,448.5 Z M 861.5,857.5 C 880.079,855.368 893.245,862.701 901,879.5C 905.271,900.464 897.438,914.631 877.5,922C 862.091,925.037 849.924,920.204 841,907.5C 831.591,883.848 838.425,867.181 861.5,857.5 Z"/></g>
</svg>
