<?xml version="1.0" encoding="UTF-8"?>
<!DOCTYPE svg PUBLIC "-//W3C//DTD SVG 1.1//EN" "http://www.w3.org/Graphics/SVG/1.1/DTD/svg11.dtd">
<svg xmlns="http://www.w3.org/2000/svg" version="1.1" width="1080px" height="1080px" style="shape-rendering:geometricPrecision; text-rendering:geometricPrecision; image-rendering:optimizeQuality; fill-rule:evenodd; clip-rule:evenodd" xmlns:xlink="http://www.w3.org/1999/xlink">
<g><path style="opacity:0.97" fill="#000000" d="M 91.5,53.5 C 286.834,53.3333 482.167,53.5 677.5,54C 704.586,59.7512 722.086,75.9178 730,102.5C 731.331,112.45 731.831,122.45 731.5,132.5C 720.862,133.588 710.195,134.255 699.5,134.5C 700.845,122.586 699.011,111.253 694,100.5C 688.539,92.5185 681.039,87.6851 671.5,86C 480.167,85.3333 288.833,85.3333 97.5,86C 83.1186,88.7145 74.2852,97.2145 71,111.5C 70.3333,396.833 70.3333,682.167 71,967.5C 73.8163,978.322 80.3163,986.156 90.5,991C 125.161,992.146 159.828,992.98 194.5,993.5C 327.84,993.274 461.173,993.274 594.5,993.5C 622.506,992.975 650.506,992.141 678.5,991C 689.904,985.608 696.737,976.775 699,964.5C 699.5,909.501 699.667,854.501 699.5,799.5C 710.052,800.081 720.552,800.748 731,801.5C 731.667,857.833 731.667,914.167 731,970.5C 724.6,1001.4 705.766,1019.57 674.5,1025C 481.167,1025.67 287.833,1025.67 94.5,1025C 69.8076,1021.3 52.3076,1008.13 42,985.5C 40.6866,981.58 39.6866,977.58 39,973.5C 38.3333,683.833 38.3333,394.167 39,104.5C 46.2717,76.7252 63.7717,59.7252 91.5,53.5 Z M 196.5,817.5 C 217.167,817.5 237.833,817.5 258.5,817.5C 258.5,838.167 258.5,858.833 258.5,879.5C 237.833,879.5 217.167,879.5 196.5,879.5C 196.5,858.833 196.5,838.167 196.5,817.5 Z M 353.5,817.5 C 374.5,817.5 395.5,817.5 416.5,817.5C 416.5,838.167 416.5,858.833 416.5,879.5C 395.5,879.5 374.5,879.5 353.5,879.5C 353.5,858.833 353.5,838.167 353.5,817.5 Z M 511.5,817.5 C 531.833,817.5 552.167,817.5 572.5,817.5C 572.5,838.167 572.5,858.833 572.5,879.5C 551.833,879.5 531.167,879.5 510.5,879.5C 510.179,858.758 510.512,838.091 511.5,817.5 Z"/></g>
<g><path style="opacity:0.963" fill="#000000" d="M 705.5,158.5 C 713.833,158.5 722.167,158.5 730.5,158.5C 730.5,261.167 730.5,363.833 730.5,466.5C 833.167,466.333 935.834,466.5 1038.5,467C 1036.2,576.275 990.535,662.275 901.5,725C 810.494,782.118 714.494,791.785 613.5,754C 524.437,715.606 464.604,650.44 434,558.5C 404.339,449.449 425.006,351.449 496,264.5C 551.987,202.061 621.82,166.728 705.5,158.5 Z M 696.5,192.5 C 697.117,192.611 697.617,192.944 698,193.5C 698.5,295.166 698.667,396.833 698.5,498.5C 800.5,498.5 902.5,498.5 1004.5,498.5C 990.902,594.264 941.902,665.764 857.5,713C 785.939,748.183 712.273,753.183 636.5,728C 551.487,694.832 494.32,634.999 465,548.5C 438.215,449.083 457.882,360.416 524,282.5C 570.521,231.489 628.021,201.489 696.5,192.5 Z"/></g>
<g><path style="opacity:0.96" fill="#000000" d="M 828.5,160.5 C 859.526,158.087 881.026,171.087 893,199.5C 899.727,229.539 889.894,252.372 863.5,268C 837.262,277.753 814.429,272.586 795,252.5C 780.522,231.255 779.189,209.255 791,186.5C 800.289,173.267 812.789,164.6 828.5,160.5 Z M 832.5,196.5 C 850.976,194.813 859.81,203.146 859,221.5C 854.853,233.663 846.353,238.829 833.5,237C 819.823,230.804 815.656,220.638 821,206.5C 822.122,204.376 823.622,202.543 825.5,201C 828.239,199.974 830.572,198.474 832.5,196.5 Z"/></g>
<g><path style="opacity:0.949" fill="#000000" d="M 1010.5,161.5 C 1019.1,168.595 1027.27,176.262 1035,184.5C 1035.67,185.5 1035.67,186.5 1035,187.5C 959.806,262.694 884.64,337.86 809.5,413C 808.833,413.667 808.167,413.667 807.5,413C 799.5,405 791.5,397 783.5,389C 858.674,312.659 934.341,236.826 1010.5,161.5 Z"/></g>
<g><path style="opacity:0.953" fill="#000000" d="M 113.5,165.5 C 269.973,165.002 426.307,165.502 582.5,167C 565.228,176.305 548.561,186.639 532.5,198C 403.5,198.5 274.5,198.667 145.5,198.5C 145.5,225.5 145.5,252.5 145.5,279.5C 247.833,279.5 350.167,279.5 452.5,279.5C 452.649,280.552 452.483,281.552 452,282.5C 445.708,292.249 439.542,302.082 433.5,312C 326.975,312.186 220.308,312.353 113.5,312.5C 113.5,263.5 113.5,214.5 113.5,165.5 Z"/></g>
<g><path style="opacity:0.961" fill="#000000" d="M 978.5,301.5 C 1013.55,304.061 1033.22,322.894 1037.5,358C 1033.88,392.453 1014.88,411.286 980.5,414.5C 946.611,411.446 927.611,392.946 923.5,359C 926.546,324.794 944.879,305.627 978.5,301.5 Z M 977.5,337.5 C 993.29,337.789 1001.12,345.789 1001,361.5C 995.545,377.102 985.045,381.936 969.5,376C 956.648,364.698 956.314,353.031 968.5,341C 971.459,339.396 974.459,338.229 977.5,337.5 Z"/></g>
<g><path style="opacity:0.979" fill="#000000" d="M 113.5,346.5 C 215.169,346.167 316.836,346.5 418.5,347.5C 414.357,357.594 411.024,367.928 408.5,378.5C 320.833,378.5 233.167,378.5 145.5,378.5C 145.5,381.5 145.5,384.5 145.5,387.5C 231.833,387.5 318.167,387.5 404.5,387.5C 403.261,398.264 401.595,408.931 399.5,419.5C 304.167,419.5 208.833,419.5 113.5,419.5C 113.5,395.167 113.5,370.833 113.5,346.5 Z"/></g>
<g><path style="opacity:0.969" fill="#000000" d="M 164.5,466.5 C 206.833,466.5 249.167,466.5 291.5,466.5C 291.5,508.833 291.5,551.167 291.5,593.5C 249.161,593.833 206.828,593.5 164.5,592.5C 163.784,550.376 163.784,508.376 164.5,466.5 Z M 196.5,498.5 C 217.167,498.5 237.833,498.5 258.5,498.5C 258.5,519.5 258.5,540.5 258.5,561.5C 237.833,561.5 217.167,561.5 196.5,561.5C 196.5,540.5 196.5,519.5 196.5,498.5 Z"/></g>
<g><path style="opacity:0.977" fill="#000000" d="M 321.5,466.5 C 346.167,466.5 370.833,466.5 395.5,466.5C 395.356,477.239 396.022,487.905 397.5,498.5C 382.833,498.5 368.167,498.5 353.5,498.5C 353.5,519.5 353.5,540.5 353.5,561.5C 372.167,561.5 390.833,561.5 409.5,561.5C 412.837,572.185 416.17,582.851 419.5,593.5C 386.833,593.5 354.167,593.5 321.5,593.5C 321.5,551.167 321.5,508.833 321.5,466.5 Z"/></g>
<g><path style="opacity:0.953" fill="#000000" d="M 164.5,625.5 C 206.833,625.5 249.167,625.5 291.5,625.5C 291.667,667.835 291.5,710.168 291,752.5C 249.238,753.663 207.404,753.83 165.5,753C 164.874,752.25 164.374,751.416 164,750.5C 163.519,708.615 163.685,666.949 164.5,625.5 Z M 196.5,658.5 C 217.167,658.5 237.833,658.5 258.5,658.5C 258.5,679.167 258.5,699.833 258.5,720.5C 237.833,720.5 217.167,720.5 196.5,720.5C 196.5,699.833 196.5,679.167 196.5,658.5 Z"/></g>
<g><path style="opacity:0.975" fill="#000000" d="M 321.5,625.5 C 359.501,625.333 397.501,625.5 435.5,626C 440.294,632.417 444.461,639.25 448,646.5C 448.5,681.832 448.667,717.165 448.5,752.5C 406.167,752.5 363.833,752.5 321.5,752.5C 321.5,710.167 321.5,667.833 321.5,625.5 Z M 353.5,658.5 C 374.5,658.5 395.5,658.5 416.5,658.5C 416.5,679.167 416.5,699.833 416.5,720.5C 395.5,720.5 374.5,720.5 353.5,720.5C 353.5,699.833 353.5,679.167 353.5,658.5 Z"/></g>
<g><path style="opacity:0.946" fill="#000000" d="M 477.5,688.5 C 478.552,688.351 479.552,688.517 480.5,689C 501.881,713.533 526.547,734.366 554.5,751.5C 528.842,752.5 503.175,752.833 477.5,752.5C 477.5,731.167 477.5,709.833 477.5,688.5 Z"/></g>
<g><path style="opacity:0.955" fill="#000000" d="M 164.5,784.5 C 206.739,784.17 248.906,784.503 291,785.5C 291.5,827.832 291.667,870.165 291.5,912.5C 248.928,912.83 206.428,912.497 164,911.5C 163.362,869.107 163.529,826.774 164.5,784.5 Z M 196.5,817.5 C 196.5,838.167 196.5,858.833 196.5,879.5C 217.167,879.5 237.833,879.5 258.5,879.5C 258.5,858.833 258.5,838.167 258.5,817.5C 237.833,817.5 217.167,817.5 196.5,817.5 Z"/></g>
<g><path style="opacity:0.967" fill="#000000" d="M 321.5,784.5 C 363.833,784.5 406.167,784.5 448.5,784.5C 448.5,827.167 448.5,869.833 448.5,912.5C 406.167,912.5 363.833,912.5 321.5,912.5C 321.5,869.833 321.5,827.167 321.5,784.5 Z M 353.5,817.5 C 353.5,838.167 353.5,858.833 353.5,879.5C 374.5,879.5 395.5,879.5 416.5,879.5C 416.5,858.833 416.5,838.167 416.5,817.5C 395.5,817.5 374.5,817.5 353.5,817.5 Z"/></g>
<g><path style="opacity:0.953" fill="#000000" d="M 478.5,784.5 C 520.739,784.17 562.906,784.503 605,785.5C 605.83,827.738 605.663,869.904 604.5,912C 562.262,912.83 520.096,912.663 478,911.5C 477.173,869.096 477.339,826.762 478.5,784.5 Z M 511.5,817.5 C 510.512,838.091 510.179,858.758 510.5,879.5C 531.167,879.5 551.833,879.5 572.5,879.5C 572.5,858.833 572.5,838.167 572.5,817.5C 552.167,817.5 531.833,817.5 511.5,817.5 Z"/></g>
<g><path style="opacity:0.949" fill="#000000" d="M 638.5,788.5 C 648.963,791.407 659.463,794.074 670,796.5C 670.667,834.167 670.667,871.833 670,909.5C 664.344,941.155 645.844,960.322 614.5,967C 557.168,967.5 499.834,967.667 442.5,967.5C 442.18,956.585 442.513,945.752 443.5,935C 499.167,934.667 554.833,934.333 610.5,934C 626.362,930.471 635.196,920.638 637,904.5C 637.173,865.762 637.673,827.096 638.5,788.5 Z"/></g>
</svg>
