<?xml version="1.0" encoding="UTF-8"?>
<!DOCTYPE svg PUBLIC "-//W3C//DTD SVG 1.1//EN" "http://www.w3.org/Graphics/SVG/1.1/DTD/svg11.dtd">
<svg xmlns="http://www.w3.org/2000/svg" version="1.1" width="1080px" height="1080px" style="shape-rendering:geometricPrecision; text-rendering:geometricPrecision; image-rendering:optimizeQuality; fill-rule:evenodd; clip-rule:evenodd" xmlns:xlink="http://www.w3.org/1999/xlink">
<g><path style="opacity:0.947" fill="#000000" d="M 830.5,251.5 C 873.078,248.028 903.578,265.362 922,303.5C 929.333,325.167 929.333,346.833 922,368.5C 920.456,370.468 919.289,372.635 918.5,375C 968.578,375.922 1018.58,376.088 1068.5,375.5C 1068.67,430.168 1068.5,484.834 1068,539.5C 1063.02,549.075 1055.18,552.908 1044.5,551C 1016.72,535.275 990.385,537.275 965.5,557C 943.649,581.7 940.816,608.533 957,637.5C 976.781,662.73 1001.95,670.23 1032.5,660C 1037.81,656.346 1043.64,654.18 1050,653.5C 1058.5,653.75 1064.5,657.75 1068,665.5C 1068.5,719.832 1068.67,774.166 1068.5,828.5C 918.167,828.5 767.833,828.5 617.5,828.5C 617.333,774.832 617.5,721.166 618,667.5C 622.916,655.288 631.749,651.121 644.5,655C 668.672,668.362 692.338,667.529 715.5,652.5C 738.792,632.437 745.625,607.77 736,578.5C 726.743,558.241 711.243,545.741 689.5,541C 673.237,538.153 658.237,541.153 644.5,550C 633.723,552.963 625.223,549.796 619,540.5C 617.35,485.878 617.017,431.212 618,376.5C 645.804,375.17 673.637,375.17 701.5,376.5C 723.465,375.844 745.465,375.177 767.5,374.5C 752.553,341.317 756.053,310.317 778,281.5C 792.027,265.282 809.527,255.282 830.5,251.5 Z M 835.5,273.5 C 872.753,272.941 895.919,290.607 905,326.5C 907.433,342.61 904.1,357.276 895,370.5C 891.061,385.454 896.561,394.954 911.5,399C 956.499,399.5 1001.5,399.667 1046.5,399.5C 1046.2,404.099 1046.53,408.599 1047.5,413C 1046.67,450.762 1046.17,488.595 1046,526.5C 1009.16,510.66 976.16,516.327 947,543.5C 920.664,574.854 916.664,608.854 935,645.5C 956.233,677.486 986.066,690.986 1024.5,686C 1032.02,684.493 1039.19,681.993 1046,678.5C 1046.5,720.832 1046.67,763.165 1046.5,805.5C 910.975,805.55 775.308,805.55 639.5,805.5C 639.167,763.161 639.5,720.828 640.5,678.5C 679.5,694.908 713.667,687.908 743,657.5C 770.333,620.833 770.333,584.167 743,547.5C 713.822,516.764 679.655,509.764 640.5,526.5C 639.5,484.172 639.167,441.839 639.5,399.5C 684.694,399.376 730.027,399.209 775.5,399C 790.107,395.286 795.607,386.119 792,371.5C 775.825,345.25 777.158,319.917 796,295.5C 806.879,283.816 820.046,276.483 835.5,273.5 Z"/></g>
<g><path style="opacity:0.943" fill="#000000" d="M 10.5,375.5 C 62.0874,375.734 113.754,375.901 165.5,376C 180.653,378.453 186.819,387.287 184,402.5C 169.459,426.894 170.125,450.894 186,474.5C 204.929,497.2 228.762,504.366 257.5,496C 292.163,478.98 304.329,451.813 294,414.5C 290.508,408.69 288.008,402.524 286.5,396C 287.559,384.939 293.559,378.272 304.5,376C 356.421,375.937 408.421,375.937 460.5,376C 461,376.5 461.5,377 462,377.5C 462.82,411.19 462.653,444.856 461.5,478.5C 462.138,494.819 462.805,511.152 463.5,527.5C 502.568,509.703 537.068,516.037 567,546.5C 588.387,572.815 593.387,602.149 582,634.5C 562.361,674.113 530.528,691.28 486.5,686C 478.403,684.23 470.737,681.396 463.5,677.5C 462.831,727.734 462.164,777.901 461.5,828C 408.5,828.667 355.5,828.667 302.5,828C 292.514,825.675 287.181,819.341 286.5,809C 286.762,806.453 287.262,803.953 288,801.5C 305.43,769.067 300.264,740.9 272.5,717C 248.162,701.732 223.828,701.732 199.5,717C 175.636,736.95 168.469,761.783 178,791.5C 185.361,800.857 186.361,810.857 181,821.5C 177.984,825.092 174.151,827.258 169.5,828C 116.501,828.5 63.501,828.667 10.5,828.5C 10.5,677.5 10.5,526.5 10.5,375.5 Z M 45.5,398.5 C 83.4332,399.161 121.433,399.827 159.5,400.5C 143.408,439.209 150.408,473.042 180.5,502C 211.189,525.712 243.856,528.712 278.5,511C 311.683,489.107 325.183,458.273 319,418.5C 316.924,412.105 314.758,405.772 312.5,399.5C 354.974,399.179 397.307,399.179 439.5,399.5C 439.333,445.835 439.5,492.168 440,538.5C 445.553,551.359 455.053,555.526 468.5,551C 487.109,539.346 506.775,537.346 527.5,545C 551.791,556.4 564.458,575.567 565.5,602.5C 563.255,635.244 546.255,655.744 514.5,664C 502.137,665.562 490.137,664.229 478.5,660C 474.941,658.37 471.608,656.37 468.5,654C 455.053,649.474 445.553,653.641 440,666.5C 439.5,712.832 439.333,759.165 439.5,805.5C 397.167,805.5 354.833,805.5 312.5,805.5C 328.374,766.352 321.374,732.185 291.5,703C 254.487,675.668 217.487,675.668 180.5,703C 150.412,731.937 143.412,765.77 159.5,804.5C 117.172,805.5 74.8386,805.833 32.5,805.5C 32.5,670.167 32.5,534.833 32.5,399.5C 37.0323,399.818 41.3656,399.485 45.5,398.5 Z"/></g>
</svg>
