<?xml version="1.0" encoding="UTF-8"?>
<!DOCTYPE svg PUBLIC "-//W3C//DTD SVG 1.1//EN" "http://www.w3.org/Graphics/SVG/1.1/DTD/svg11.dtd">
<svg xmlns="http://www.w3.org/2000/svg" version="1.1" width="1080px" height="1080px" style="shape-rendering:geometricPrecision; text-rendering:geometricPrecision; image-rendering:optimizeQuality; fill-rule:evenodd; clip-rule:evenodd" xmlns:xlink="http://www.w3.org/1999/xlink">
<g><path style="opacity:0.965" fill="#000000" d="M 257.5,248.5 C 275.206,245.83 291.206,249.664 305.5,260C 320.455,274.28 326.622,291.78 324,312.5C 321.724,332.002 314.39,349.335 302,364.5C 297.472,370.342 291.639,374.009 284.5,375.5C 283.28,375.113 282.613,374.28 282.5,373C 288.017,351.385 288.85,329.552 285,307.5C 278.975,288.569 266.809,282.736 248.5,290C 227.275,306.925 213.775,328.759 208,355.5C 200.795,380.78 195.462,406.447 192,432.5C 191.333,441.5 191.333,450.5 192,459.5C 193.728,462.953 196.562,464.786 200.5,465C 225.265,465.53 249.931,465.363 274.5,464.5C 281.512,464.834 288.512,465.334 295.5,466C 304.038,467.573 306.205,472.073 302,479.5C 298.806,482.694 295.64,485.86 292.5,489C 289.066,491.435 285.4,493.435 281.5,495C 249.779,499.018 218.112,503.184 186.5,507.5C 180.719,547.689 175.552,588.022 171,628.5C 166.838,656.63 161.838,684.63 156,712.5C 150.216,734.062 142.216,754.728 132,774.5C 124.59,787.239 115.09,798.072 103.5,807C 89.2942,816.68 73.9608,819.013 57.5,814C 42.8071,807.247 34.8071,795.914 33.5,780C 33.015,775.569 34.3484,771.902 37.5,769C 39.1667,768.833 40.8333,768.667 42.5,768.5C 50.9782,770.474 59.6448,771.807 68.5,772.5C 78.6389,771.513 87.1389,767.18 94,759.5C 106.176,743.524 113.842,725.524 117,705.5C 126.57,649.805 133.903,593.805 139,537.5C 139.667,529.5 139.667,521.5 139,513.5C 134.025,509.196 129.025,504.862 124,500.5C 120.849,494.715 121.182,489.049 125,483.5C 130.511,476.461 136.011,469.461 141.5,462.5C 145.757,456.992 149.257,450.992 152,444.5C 157.336,415.124 162.67,385.791 168,356.5C 175.543,327.552 188.21,301.219 206,277.5C 219.898,261.969 237.064,252.303 257.5,248.5 Z"/></g>
<g><path style="opacity:0.968" fill="#000000" d="M 896.5,250.5 C 903.393,249.655 909.727,251.155 915.5,255C 929.185,265.573 940.685,278.073 950,292.5C 960.667,308.5 971.333,324.5 982,340.5C 990.529,354.365 998.196,368.698 1005,383.5C 1014.52,413.062 1023.85,442.728 1033,472.5C 1045.5,522.765 1048.83,573.765 1043,625.5C 1035.13,667.79 1019.79,707.124 997,743.5C 986.333,758.167 975.667,772.833 965,787.5C 958.733,799.424 952.067,811.091 945,822.5C 941.253,828.698 935.753,831.364 928.5,830.5C 918.129,830.066 910.296,825.399 905,816.5C 904.333,813.167 904.333,809.833 905,806.5C 907.622,799.255 911.289,792.588 916,786.5C 926,773.833 936,761.167 946,748.5C 955.317,734.199 963.317,719.199 970,703.5C 983.345,672.176 994.678,640.176 1004,607.5C 1005.61,551.91 997.607,497.91 980,445.5C 968.925,418.355 957.592,391.355 946,364.5C 935.3,344.412 922.633,325.745 908,308.5C 898.97,299.136 889.637,290.136 880,281.5C 873.955,271.583 875.788,263.417 885.5,257C 888.933,254.289 892.6,252.123 896.5,250.5 Z"/></g>
<g><path style="opacity:0.968" fill="#000000" d="M 590.5,255.5 C 598.059,254.28 603.559,256.947 607,263.5C 607.667,267.5 607.667,271.5 607,275.5C 604.829,279.844 602.163,283.844 599,287.5C 576.556,309.609 554.556,331.942 533,354.5C 503.373,392.75 479.707,434.417 462,479.5C 454.973,499.944 450.307,520.944 448,542.5C 447.333,549.833 447.333,557.167 448,564.5C 452.705,602.829 459.039,640.829 467,678.5C 471.498,696.485 477.832,713.818 486,730.5C 494.325,743.501 504.159,755.334 515.5,766C 528.12,776.186 539.62,787.353 550,799.5C 558.746,816.174 553.913,826.341 535.5,830C 530.167,830.667 524.833,830.667 519.5,830C 515.54,828.357 511.54,826.69 507.5,825C 504.167,822.333 500.833,819.667 497.5,817C 476.04,794.222 456.874,769.722 440,743.5C 432.633,726.362 426.967,708.695 423,690.5C 413.902,649.712 408.735,608.379 407.5,566.5C 407.206,539.703 410.373,513.369 417,487.5C 435.084,434.261 458.75,383.594 488,335.5C 511.209,312.511 535.042,290.345 559.5,269C 569.194,262.748 579.527,258.248 590.5,255.5 Z"/></g>
<g><path style="opacity:0.97" fill="#000000" d="M 777.5,406.5 C 794.128,406.065 805.961,413.399 813,428.5C 813.667,432.833 813.667,437.167 813,441.5C 808.597,451.576 802.931,460.91 796,469.5C 780,488.833 764,508.167 748,527.5C 733.116,542.368 719.116,557.701 706,573.5C 723.062,594.22 743.895,610.053 768.5,621C 793.793,627.104 818.126,624.437 841.5,613C 849.904,608.424 857.904,603.258 865.5,597.5C 878.621,586.885 891.621,576.051 904.5,565C 912.282,563.047 916.949,565.88 918.5,573.5C 915.699,583.433 911.033,592.433 904.5,600.5C 880.104,629.075 850.771,650.908 816.5,666C 793.609,674.297 770.276,675.963 746.5,671C 732.84,665 720.507,657 709.5,647C 695.978,633.412 682.811,619.579 670,605.5C 647.538,630.419 625.538,655.752 604,681.5C 594.51,692.973 582.343,697.806 567.5,696C 547.969,687.838 541.136,673.672 547,653.5C 550.201,649.964 553.701,646.797 557.5,644C 566.353,639.075 574.686,633.409 582.5,627C 600.879,609.458 619.212,591.625 637.5,573.5C 631.232,564.616 624.732,555.949 618,547.5C 602.501,525.327 589.835,501.661 580,476.5C 577.095,467.197 575.262,457.697 574.5,448C 576,418.767 591,407.1 619.5,413C 622.952,416.734 625.785,420.9 628,425.5C 630.581,438.061 632.581,450.727 634,463.5C 637.55,475.27 642.216,486.603 648,497.5C 657.333,511.5 666.667,525.5 676,539.5C 702.339,514.72 725.339,487.387 745,457.5C 752.525,443.255 759.858,428.922 767,414.5C 769.885,410.751 773.385,408.084 777.5,406.5 Z"/></g>
</svg>
