<?xml version="1.0" encoding="UTF-8"?>
<!DOCTYPE svg PUBLIC "-//W3C//DTD SVG 1.1//EN" "http://www.w3.org/Graphics/SVG/1.1/DTD/svg11.dtd">
<svg xmlns="http://www.w3.org/2000/svg" version="1.1" width="1080px" height="1080px" style="shape-rendering:geometricPrecision; text-rendering:geometricPrecision; image-rendering:optimizeQuality; fill-rule:evenodd; clip-rule:evenodd" xmlns:xlink="http://www.w3.org/1999/xlink">
<g><path style="opacity:0.985" fill="#000000" d="M 577.5,19.5 C 619.973,16.93 657.307,29.0967 689.5,56C 717.643,83.0214 733.143,116.188 736,155.5C 737.966,179.874 735.966,203.874 730,227.5C 708.449,301.152 665.282,358.318 600.5,399C 560.299,423.18 516.633,434.18 469.5,432C 398.235,422.066 355.401,381.899 341,311.5C 335.525,272.112 339.858,233.778 354,196.5C 384.469,122.363 436.303,68.8629 509.5,36C 531.578,27.49 554.245,21.99 577.5,19.5 Z M 548.5,107.5 C 567.559,106.261 580.725,114.261 588,131.5C 592.372,150.308 589.038,167.641 578,183.5C 569.024,194.753 557.857,203.253 544.5,209C 521.621,216.271 504.788,209.437 494,188.5C 489.006,154.655 501.506,129.488 531.5,113C 537.333,111.3 543,109.467 548.5,107.5 Z M 586.5,232.5 C 594.917,232.094 603.251,232.594 611.5,234C 619.943,237.443 626.11,243.277 630,251.5C 634.814,262.957 638.314,274.791 640.5,287C 639.016,299.635 633.35,309.968 623.5,318C 578.812,348.77 529.145,364.937 474.5,366.5C 461.201,367.876 449.368,364.543 439,356.5C 434.785,350.082 433.452,343.082 435,335.5C 438.278,325.27 441.278,314.936 444,304.5C 451.833,282 467,266.833 489.5,259C 521.959,250.347 554.293,241.513 586.5,232.5 Z"/></g>
<g><path style="opacity:0.978" fill="#000000" d="M 945.5,93.5 C 991.232,92.4298 1018.73,114.096 1028,158.5C 1028.67,346.5 1028.67,534.5 1028,722.5C 1017.33,775.506 987.159,812.673 937.5,834C 913.677,840.789 889.677,846.956 865.5,852.5C 872.315,836.866 879.148,821.199 886,805.5C 887.8,803.683 889.966,802.516 892.5,802C 906.531,798.46 920.531,794.794 934.5,791C 963.011,777.855 979.845,755.689 985,724.5C 985.667,542.833 985.667,361.167 985,179.5C 982.639,153.803 968.639,140.47 943,139.5C 937.787,139.546 932.62,140.046 927.5,141C 882.574,153.484 837.574,165.318 792.5,176.5C 792.167,162.151 792.501,147.818 793.5,133.5C 835.595,121.557 877.928,110.057 920.5,99C 929.044,97.3624 937.377,95.529 945.5,93.5 Z"/></g>
<g><path style="opacity:0.968" fill="#000000" d="M 278.5,270.5 C 279.822,270.33 280.989,270.663 282,271.5C 282.667,285.5 282.667,299.5 282,313.5C 241.308,325.324 200.141,336.491 158.5,347C 123.854,354.222 101.688,374.722 92,408.5C 90.8381,502.624 90.3381,596.791 90.5,691C 90.3393,785.535 90.8393,880.035 92,974.5C 100.341,996.932 116.507,1006.43 140.5,1003C 244.21,975.656 347.876,948.156 451.5,920.5C 452.086,920.709 452.586,921.043 453,921.5C 452.689,935.813 457.189,948.313 466.5,959C 462.392,961.116 458.059,962.783 453.5,964C 350.133,991.675 246.799,1019.34 143.5,1047C 117.788,1053.05 94.4545,1048.38 73.5,1033C 57.6272,1019.05 48.7939,1001.55 47,980.5C 46.3333,795.5 46.3333,610.5 47,425.5C 55.9407,368.223 87.4407,329.056 141.5,308C 187.465,296.05 233.132,283.55 278.5,270.5 Z"/></g>
<g><path style="opacity:0.965" fill="#000000" d="M 784.5,399.5 C 792.384,397.602 797.884,400.269 801,407.5C 801.667,445.5 801.667,483.5 801,521.5C 799.014,526.496 795.847,530.663 791.5,534C 731.223,550.653 670.889,567.153 610.5,583.5C 595.134,574.822 580.134,565.656 565.5,556C 629.61,537.798 693.944,520.298 758.5,503.5C 758.833,484.821 758.5,466.155 757.5,447.5C 615.629,485.453 473.629,523.619 331.5,562C 326.878,563.156 322.211,563.99 317.5,564.5C 317.167,583.512 317.5,602.512 318.5,621.5C 371.262,607.111 424.096,592.777 477,578.5C 478.365,579.593 478.699,580.926 478,582.5C 471.163,596.351 464.33,610.184 457.5,624C 400.265,639.524 342.765,654.691 285,669.5C 278.977,669.328 275.31,666.328 274,660.5C 273.333,623.5 273.333,586.5 274,549.5C 275.428,544.15 278.261,539.65 282.5,536C 287.96,533.547 293.627,531.547 299.5,530C 461.586,487.233 623.252,443.733 784.5,399.5 Z"/></g>
<g><path style="opacity:0.979" fill="#000000" d="M 526.5,580.5 C 532.563,579.838 538.23,581.004 543.5,584C 646.102,644.973 748.769,705.973 851.5,767C 857.133,772.562 858.633,779.062 856,786.5C 846.379,808.039 836.379,829.372 826,850.5C 823.022,852.382 819.855,853.882 816.5,855C 807.424,857.247 798.424,859.747 789.5,862.5C 807.361,893.564 825.194,924.564 843,955.5C 843.667,959.167 843.667,962.833 843,966.5C 834.377,984.077 826.044,1001.74 818,1019.5C 815.366,1025.46 810.866,1029.3 804.5,1031C 768.113,1041.02 731.78,1051.35 695.5,1062C 687.4,1063.63 680.9,1061.13 676,1054.5C 648.296,1008.26 620.463,962.093 592.5,916C 565.471,923.512 538.471,931.512 511.5,940C 503.24,941.82 496.74,939.32 492,932.5C 490.338,836.581 490.005,740.581 491,644.5C 499.743,625.348 508.743,606.348 518,587.5C 520.628,584.79 523.461,582.456 526.5,580.5 Z M 548.5,630.5 C 633.665,678.256 718.665,726.089 803.5,774C 779.534,781.397 755.867,789.23 732.5,797.5C 725.658,803.552 723.824,810.885 727,819.5C 751.699,863.063 776.532,906.563 801.5,950C 778.464,956.843 755.464,963.843 732.5,971C 729.515,971.868 726.515,972.201 723.5,972C 696.237,927.742 669.404,883.242 643,838.5C 638.681,829.262 631.514,825.095 621.5,826C 597.675,833.789 573.675,840.956 549.5,847.5C 549.081,775.219 548.748,702.885 548.5,630.5 Z"/></g>
<g><path style="opacity:0.958" fill="#000000" d="M 785.5,595.5 C 793.038,593.85 798.204,596.517 801,603.5C 801.667,634.167 801.667,664.833 801,695.5C 800.667,695.833 800.333,696.167 800,696.5C 786.333,688.167 772.667,679.833 759,671.5C 758.5,662.173 758.334,652.839 758.5,643.5C 750.485,645.472 742.485,647.639 734.5,650C 731.199,650.997 727.866,651.33 724.5,651C 709.809,642.886 695.476,634.219 681.5,625C 683.377,623.815 685.377,622.815 687.5,622C 720.261,613.482 752.928,604.648 785.5,595.5 Z"/></g>
<g><path style="opacity:0.963" fill="#000000" d="M 450.5,685.5 C 451.496,685.414 452.329,685.748 453,686.5C 453.822,699.409 453.655,712.242 452.5,725C 407.478,737.396 362.478,749.396 317.5,761C 317.451,779.709 317.451,798.542 317.5,817.5C 362.201,805.868 406.701,793.868 451,781.5C 451.772,781.645 452.439,781.978 453,782.5C 453.667,795.167 453.667,807.833 453,820.5C 397.387,836.527 341.553,851.527 285.5,865.5C 279.229,865.633 275.396,862.633 274,856.5C 273.333,819.5 273.333,782.5 274,745.5C 275.521,739.634 278.688,734.8 283.5,731C 339.188,715.896 394.855,700.729 450.5,685.5 Z"/></g>
</svg>
