<?xml version="1.0" encoding="UTF-8"?>
<!DOCTYPE svg PUBLIC "-//W3C//DTD SVG 1.1//EN" "http://www.w3.org/Graphics/SVG/1.1/DTD/svg11.dtd">
<svg xmlns="http://www.w3.org/2000/svg" version="1.1" width="1080px" height="1080px" style="shape-rendering:geometricPrecision; text-rendering:geometricPrecision; image-rendering:optimizeQuality; fill-rule:evenodd; clip-rule:evenodd" xmlns:xlink="http://www.w3.org/1999/xlink">
<g><path style="opacity:0.962" fill="#000000" d="M 539.5,13.5 C 548.289,12.1896 556.289,14.023 563.5,19C 609.194,64.9387 655.027,110.772 701,156.5C 701.5,157.5 702,158.5 702.5,159.5C 656.014,206.486 609.347,253.32 562.5,300C 544.226,309.909 530.726,305.409 522,286.5C 521.5,267.503 521.333,248.503 521.5,229.5C 418.189,238.384 337.023,285.05 278,369.5C 244.846,421.843 227.513,479.177 226,541.5C 214.91,542.653 203.743,542.82 192.5,542C 193.521,430.491 236.854,339.491 322.5,269C 390.898,215.261 468.898,190.428 556.5,194.5C 557.322,214.457 557.822,234.457 558,254.5C 589.693,223.139 621.193,191.306 652.5,159C 621.355,127.188 589.855,95.6884 558,64.5C 557.404,84.2647 556.904,103.931 556.5,123.5C 425.084,122.391 315.251,169.724 227,265.5C 158.779,344.8 123.612,436.967 121.5,542C 110.833,542.667 100.167,542.667 89.5,542C 87.2953,491.806 94.462,442.973 111,395.5C 157.382,267.947 242.882,177.114 367.5,123C 416.828,103.203 468.162,92.0364 521.5,89.5C 521.333,70.4971 521.5,51.4971 522,32.5C 524.955,23.3831 530.789,17.0498 539.5,13.5 Z"/></g>
<g><path style="opacity:0.92" fill="#000000" d="M 744.5,196.5 C 756.85,202.674 768.184,210.341 778.5,219.5C 771.545,230.276 763.712,240.276 755,249.5C 744.844,242.991 735.011,236.158 725.5,229C 731.712,218.073 738.045,207.24 744.5,196.5 Z"/></g>
<g><path style="opacity:0.921" fill="#000000" d="M 807.5,243.5 C 811.94,246.763 816.273,250.263 820.5,254C 826.113,259.621 831.446,265.621 836.5,272C 827.674,281.317 818.174,289.817 808,297.5C 799.833,288.667 791.333,280.167 782.5,272C 790.685,262.318 799.019,252.818 807.5,243.5 Z"/></g>
<g><path style="opacity:0.921" fill="#000000" d="M 859.5,301.5 C 862.298,302.706 864.465,304.706 866,307.5C 872.332,316.159 878.165,325.159 883.5,334.5C 882.687,335.814 881.687,336.981 880.5,338C 870.796,343.516 861.129,349.016 851.5,354.5C 849.912,353.99 848.745,352.99 848,351.5C 842.782,342.221 836.948,333.388 830.5,325C 830.759,323.739 831.426,322.739 832.5,322C 841.968,315.687 850.968,308.854 859.5,301.5 Z"/></g>
<g><path style="opacity:0.963" fill="#000000" d="M 527.5,348.5 C 614.644,347.789 677.478,386.122 716,463.5C 740.759,524.885 736.759,584.218 704,641.5C 658.18,709.986 594.014,740.153 511.5,732C 442.813,719.254 393.313,681.754 363,619.5C 338.665,560.511 341.332,502.844 371,446.5C 401.042,396.463 444.542,364.963 501.5,352C 510.292,350.652 518.959,349.486 527.5,348.5 Z M 520.5,384.5 C 598.746,380.507 653.913,413.84 686,484.5C 704.564,538.602 697.564,588.935 665,635.5C 621.376,688.3 565.876,707.467 498.5,693C 439.791,674.821 402.291,635.988 386,576.5C 374.294,515.435 391.127,463.935 436.5,422C 461.117,401.853 489.117,389.353 520.5,384.5 Z"/></g>
<g><path style="opacity:0.921" fill="#000000" d="M 898.5,369.5 C 900.144,369.286 901.644,369.62 903,370.5C 908.386,381.938 913.219,393.605 917.5,405.5C 906.581,411.088 895.081,415.422 883,418.5C 881.11,418.215 879.777,417.215 879,415.5C 875.356,405.565 871.523,395.732 867.5,386C 867.645,385.228 867.978,384.561 868.5,384C 878.713,379.392 888.713,374.559 898.5,369.5 Z"/></g>
<g><path style="opacity:0.922" fill="#000000" d="M 925.5,442.5 C 926.675,442.281 927.675,442.614 928.5,443.5C 932.439,456.244 934.939,469.244 936,482.5C 923.531,484.773 911.031,486.606 898.5,488C 895.832,476.147 893.332,464.314 891,452.5C 902.561,449.031 914.061,445.698 925.5,442.5 Z"/></g>
<g><path style="opacity:0.956" fill="#000000" d="M 604.5,480.5 C 605.552,480.351 606.552,480.517 607.5,481C 615,488.5 622.5,496 630,503.5C 630.667,504.167 630.667,504.833 630,505.5C 594.167,541.333 558.333,577.167 522.5,613C 521.5,613.667 520.5,613.667 519.5,613C 495.946,589.446 472.446,565.946 449,542.5C 448.48,540.711 448.813,539.044 450,537.5C 455.779,531.721 461.613,525.887 467.5,520C 469.269,518.936 470.936,517.769 472.5,516.5C 488.29,531.123 503.623,546.29 518.5,562C 519.5,562.5 520.5,563 521.5,563.5C 549.521,536.146 577.188,508.479 604.5,480.5 Z"/></g>
<g><path style="opacity:0.963" fill="#000000" d="M 851.5,540.5 C 863.5,540.5 875.5,540.5 887.5,540.5C 884.134,655.065 837.801,747.898 748.5,819C 681.3,868.782 605.633,891.948 521.5,888.5C 521.667,868.164 521.5,847.831 521,827.5C 489.167,859.333 457.333,891.167 425.5,923C 457.252,954.752 489.086,986.586 521,1018.5C 521.173,997.927 521.673,977.427 522.5,957C 659.142,959.281 771.976,908.781 861,805.5C 922.895,728.389 954.395,640.056 955.5,540.5C 967.081,540.179 978.581,540.512 990,541.5C 989.668,654.976 952.501,754.31 878.5,839.5C 792.989,934.077 685.989,985.077 557.5,992.5C 557.667,1010.17 557.5,1027.84 557,1045.5C 556.074,1054.75 551.574,1061.58 543.5,1066C 535.5,1066.67 527.5,1066.67 519.5,1066C 517.167,1064.33 514.833,1062.67 512.5,1061C 466.907,1014.75 421.24,968.749 375.5,923C 423.147,874.437 471.48,826.437 520.5,779C 534.369,774.101 545.535,777.601 554,789.5C 555.156,793.123 556.156,796.789 557,800.5C 557.5,817.83 557.667,835.163 557.5,852.5C 664.936,843.113 747.769,793.446 806,703.5C 835.933,653.451 851.1,599.117 851.5,540.5 Z"/></g>
<g><path style="opacity:0.925" fill="#000000" d="M 170.5,594.5 C 174.351,593.971 177.851,594.638 181,596.5C 182.043,605.292 183.709,613.959 186,622.5C 186.818,625.227 186.652,627.894 185.5,630.5C 174.088,633.248 162.755,636.248 151.5,639.5C 149.578,637.997 148.412,635.997 148,633.5C 146.588,625.107 144.921,616.774 143,608.5C 142.502,605.183 142.335,601.85 142.5,598.5C 152.026,597.615 161.359,596.282 170.5,594.5 Z"/></g>
<g><path style="opacity:0.921" fill="#000000" d="M 195.5,662.5 C 196.496,662.414 197.329,662.748 198,663.5C 201.189,673.54 205.189,683.207 210,692.5C 210.667,694.167 210.667,695.833 210,697.5C 199.395,702.804 188.729,707.804 178,712.5C 175.068,710.683 173.068,708.016 172,704.5C 168.357,695.235 164.524,686.068 160.5,677C 161.551,675.615 162.884,674.615 164.5,674C 175.191,670.829 185.524,666.996 195.5,662.5 Z"/></g>
<g><path style="opacity:0.92" fill="#000000" d="M 225.5,727.5 C 226.822,727.33 227.989,727.663 229,728.5C 235.182,738.01 241.349,747.51 247.5,757C 246.561,758.944 245.227,760.611 243.5,762C 234.657,767.921 225.991,774.088 217.5,780.5C 208.925,770.358 201.592,759.358 195.5,747.5C 195.608,746.558 195.941,745.725 196.5,745C 206.53,739.657 216.197,733.824 225.5,727.5 Z"/></g>
<g><path style="opacity:0.924" fill="#000000" d="M 268.5,784.5 C 269.922,784.709 271.255,785.209 272.5,786C 280.011,794.344 287.678,802.51 295.5,810.5C 287.252,820.174 278.752,829.508 270,838.5C 259.833,829.667 250.333,820.167 241.5,810C 250.698,801.633 259.698,793.133 268.5,784.5 Z"/></g>
<g><path style="opacity:0.921" fill="#000000" d="M 321.5,832.5 C 322.552,832.351 323.552,832.517 324.5,833C 333.228,839.392 342.228,845.392 351.5,851C 352.059,851.725 352.392,852.558 352.5,853.5C 346.782,864.596 340.282,875.263 333,885.5C 321.402,878.62 310.236,871.12 299.5,863C 307.052,852.955 314.385,842.788 321.5,832.5 Z"/></g>
</svg>
